<svg xmlns="http://www.w3.org/2000/svg" xmlns:xlink="http://www.w3.org/1999/xlink" contentStyleType="text/css" data-diagram-type="CLASS" height="382px" preserveAspectRatio="none" style="width:1730px;height:382px;background:#FFFFFF;" version="1.1" viewBox="0 0 1730 382" width="1730px" zoomAndPan="magnify"><defs/><g><!--cluster dto--><g class="cluster" data-entity="dto" data-source-line="3" data-uid="ent0008" id="cluster_dto"><path d="M8.5,6 L299.877,6 A3.75,3.75 0 0 1 302.377,8.5 L309.377,28.2969 L1720.5,28.2969 A2.5,2.5 0 0 1 1723,30.7969 L1723,373.47 A2.5,2.5 0 0 1 1720.5,375.97 L8.5,375.97 A2.5,2.5 0 0 1 6,373.47 L6,8.5 A2.5,2.5 0 0 1 8.5,6 " fill="none" style="stroke:#000000;stroke-width:1.5;"/><line style="stroke:#000000;stroke-width:1.5;" x1="6" x2="309.377" y1="28.2969" y2="28.2969"/><text fill="#000000" font-family="sans-serif" font-size="14" font-weight="bold" lengthAdjust="spacing" textLength="290.377" x="10" y="20.9951">dev.fizlrock.todo.domain.service.dto</text></g><!--class DeleteCompletedTasksRq--><g class="entity" data-entity="DeleteCompletedTasksRq" data-source-line="3" data-uid="ent0002" id="entity_DeleteCompletedTasksRq"><rect fill="#F1F1F1" height="64.2969" rx="2.5" ry="2.5" style="stroke:#181818;stroke-width:0.5;" width="212.7969" x="21.6" y="73.6"/><ellipse cx="36.6" cy="89.6" fill="#ADD1B2" rx="11" ry="11" style="stroke:#181818;stroke-width:1;"/><path d="M39.5688,95.2406 Q38.9906,95.5375 38.35,95.6781 Q37.7094,95.8344 37.0063,95.8344 Q34.5063,95.8344 33.1781,94.1938 Q31.8656,92.5375 31.8656,89.4125 Q31.8656,86.2875 33.1781,84.6313 Q34.5063,82.975 37.0063,82.975 Q37.7094,82.975 38.35,83.1313 Q39.0063,83.2875 39.5688,83.5844 L39.5688,86.3031 Q38.9438,85.725 38.35,85.4594 Q37.7563,85.1781 37.1313,85.1781 Q35.7875,85.1781 35.1,86.2563 Q34.4125,87.3188 34.4125,89.4125 Q34.4125,91.5063 35.1,92.5844 Q35.7875,93.6469 37.1313,93.6469 Q37.7563,93.6469 38.35,93.3813 Q38.9438,93.1 39.5688,92.5219 L39.5688,95.2406 Z " fill="#000000"/><text fill="#000000" font-family="sans-serif" font-size="14" lengthAdjust="spacing" textLength="180.7969" x="50.6" y="94.4467">DeleteCompletedTasksRq</text><line style="stroke:#181818;stroke-width:0.5;" x1="22.6" x2="233.3969" y1="105.6" y2="105.6"/><line style="stroke:#181818;stroke-width:0.5;" x1="22.6" x2="233.3969" y1="113.6" y2="113.6"/><ellipse cx="32.6" cy="127.2484" fill="#84BE84" rx="3" ry="3" style="stroke:#038048;stroke-width:1;"/><text fill="#000000" font-family="sans-serif" font-size="14" lengthAdjust="spacing" textLength="119.0684" x="41.6" y="130.5951">String projectId()</text></g><!--class ProjectCreateRq--><g class="entity" data-entity="ProjectCreateRq" data-source-line="6" data-uid="ent0009" id="entity_ProjectCreateRq"><rect fill="#F1F1F1" height="113.1875" rx="2.5" ry="2.5" style="stroke:#181818;stroke-width:0.5;" width="178.667" x="898.67" y="238.63"/><ellipse cx="928.418" cy="254.63" fill="#ADD1B2" rx="11" ry="11" style="stroke:#181818;stroke-width:1;"/><path d="M931.3868,260.2706 Q930.8087,260.5675 930.168,260.7081 Q929.5274,260.8644 928.8243,260.8644 Q926.3243,260.8644 924.9962,259.2238 Q923.6837,257.5675 923.6837,254.4425 Q923.6837,251.3175 924.9962,249.6613 Q926.3243,248.005 928.8243,248.005 Q929.5274,248.005 930.168,248.1613 Q930.8243,248.3175 931.3868,248.6144 L931.3868,251.3331 Q930.7618,250.755 930.168,250.4894 Q929.5743,250.2081 928.9493,250.2081 Q927.6055,250.2081 926.918,251.2863 Q926.2305,252.3488 926.2305,254.4425 Q926.2305,256.5363 926.918,257.6144 Q927.6055,258.6769 928.9493,258.6769 Q929.5743,258.6769 930.168,258.4113 Q930.7618,258.13 931.3868,257.5519 L931.3868,260.2706 Z " fill="#000000"/><text fill="#000000" font-family="sans-serif" font-size="14" lengthAdjust="spacing" textLength="113.8936" x="945.6954" y="259.4767">ProjectCreateRq</text><line style="stroke:#181818;stroke-width:0.5;" x1="899.67" x2="1076.337" y1="270.63" y2="270.63"/><line style="stroke:#181818;stroke-width:0.5;" x1="899.67" x2="1076.337" y1="278.63" y2="278.63"/><ellipse cx="909.67" cy="292.2784" fill="#84BE84" rx="3" ry="3" style="stroke:#038048;stroke-width:1;"/><text fill="#000000" font-family="sans-serif" font-size="14" lengthAdjust="spacing" textLength="96.8584" x="918.67" y="295.6251">String name()</text><ellipse cx="909.67" cy="308.5753" fill="#84BE84" rx="3" ry="3" style="stroke:#038048;stroke-width:1;"/><text fill="#000000" font-family="sans-serif" font-size="14" lengthAdjust="spacing" textLength="134.9961" x="918.67" y="311.922">String description()</text><ellipse cx="909.67" cy="324.8722" fill="#84BE84" rx="3" ry="3" style="stroke:#038048;stroke-width:1;"/><text fill="#000000" font-family="sans-serif" font-size="14" lengthAdjust="spacing" textLength="152.667" x="918.67" y="328.2189">LocalDate startTime()</text><ellipse cx="909.67" cy="341.1691" fill="#84BE84" rx="3" ry="3" style="stroke:#038048;stroke-width:1;"/><text fill="#000000" font-family="sans-serif" font-size="14" lengthAdjust="spacing" textLength="146.4326" x="918.67" y="344.5157">LocalDate endTime()</text></g><!--class ProjectDeleteRq--><g class="entity" data-entity="ProjectDeleteRq" data-source-line="12" data-uid="ent0010" id="entity_ProjectDeleteRq"><rect fill="#F1F1F1" height="64.2969" rx="2.5" ry="2.5" style="stroke:#181818;stroke-width:0.5;" width="145.0684" x="269.47" y="73.6"/><ellipse cx="284.4709" cy="89.6" fill="#ADD1B2" rx="11" ry="11" style="stroke:#181818;stroke-width:1;"/><path d="M287.4396,95.2406 Q286.8615,95.5375 286.2209,95.6781 Q285.5803,95.8344 284.8771,95.8344 Q282.3771,95.8344 281.049,94.1938 Q279.7365,92.5375 279.7365,89.4125 Q279.7365,86.2875 281.049,84.6313 Q282.3771,82.975 284.8771,82.975 Q285.5803,82.975 286.2209,83.1313 Q286.8771,83.2875 287.4396,83.5844 L287.4396,86.3031 Q286.8146,85.725 286.2209,85.4594 Q285.6271,85.1781 285.0021,85.1781 Q283.6584,85.1781 282.9709,86.2563 Q282.2834,87.3188 282.2834,89.4125 Q282.2834,91.5063 282.9709,92.5844 Q283.6584,93.6469 285.0021,93.6469 Q285.6271,93.6469 286.2209,93.3813 Q286.8146,93.1 287.4396,92.5219 L287.4396,95.2406 Z " fill="#000000"/><text fill="#000000" font-family="sans-serif" font-size="14" lengthAdjust="spacing" textLength="113.0664" x="298.4711" y="94.4467">ProjectDeleteRq</text><line style="stroke:#181818;stroke-width:0.5;" x1="270.47" x2="413.5384" y1="105.6" y2="105.6"/><line style="stroke:#181818;stroke-width:0.5;" x1="270.47" x2="413.5384" y1="113.6" y2="113.6"/><ellipse cx="280.47" cy="127.2484" fill="#84BE84" rx="3" ry="3" style="stroke:#038048;stroke-width:1;"/><text fill="#000000" font-family="sans-serif" font-size="14" lengthAdjust="spacing" textLength="119.0684" x="289.47" y="130.5951">String projectId()</text></g><!--class ProjectFilterRq--><g class="entity" data-entity="ProjectFilterRq" data-source-line="15" data-uid="ent0011" id="entity_ProjectFilterRq"><rect fill="#F1F1F1" height="129.4844" rx="2.5" ry="2.5" style="stroke:#181818;stroke-width:0.5;" width="143.9746" x="450.01" y="41"/><ellipse cx="469.1576" cy="57" fill="#ADD1B2" rx="11" ry="11" style="stroke:#181818;stroke-width:1;"/><path d="M472.1263,62.6406 Q471.5482,62.9375 470.9076,63.0781 Q470.2669,63.2344 469.5638,63.2344 Q467.0638,63.2344 465.7357,61.5938 Q464.4232,59.9375 464.4232,56.8125 Q464.4232,53.6875 465.7357,52.0313 Q467.0638,50.375 469.5638,50.375 Q470.2669,50.375 470.9076,50.5313 Q471.5638,50.6875 472.1263,50.9844 L472.1263,53.7031 Q471.5013,53.125 470.9076,52.8594 Q470.3138,52.5781 469.6888,52.5781 Q468.3451,52.5781 467.6576,53.6563 Q466.9701,54.7188 466.9701,56.8125 Q466.9701,58.9063 467.6576,59.9844 Q468.3451,61.0469 469.6888,61.0469 Q470.3138,61.0469 470.9076,60.7813 Q471.5013,60.5 472.1263,59.9219 L472.1263,62.6406 Z " fill="#000000"/><text fill="#000000" font-family="sans-serif" font-size="14" lengthAdjust="spacing" textLength="102.7578" x="484.0792" y="61.8467">ProjectFilterRq</text><line style="stroke:#181818;stroke-width:0.5;" x1="451.01" x2="592.9846" y1="73" y2="73"/><line style="stroke:#181818;stroke-width:0.5;" x1="451.01" x2="592.9846" y1="81" y2="81"/><ellipse cx="461.01" cy="94.6484" fill="#84BE84" rx="3" ry="3" style="stroke:#038048;stroke-width:1;"/><text fill="#000000" font-family="sans-serif" font-size="14" lengthAdjust="spacing" textLength="77.6768" x="470.01" y="97.9951">Long skip()</text><ellipse cx="461.01" cy="110.9453" fill="#84BE84" rx="3" ry="3" style="stroke:#038048;stroke-width:1;"/><text fill="#000000" font-family="sans-serif" font-size="14" lengthAdjust="spacing" textLength="80.2949" x="470.01" y="114.292">Long limit()</text><ellipse cx="461.01" cy="127.2422" fill="#84BE84" rx="3" ry="3" style="stroke:#038048;stroke-width:1;"/><text fill="#000000" font-family="sans-serif" font-size="14" lengthAdjust="spacing" textLength="96.8584" x="470.01" y="130.5889">String name()</text><ellipse cx="461.01" cy="143.5391" fill="#84BE84" rx="3" ry="3" style="stroke:#038048;stroke-width:1;"/><text fill="#000000" font-family="sans-serif" font-size="14" lengthAdjust="spacing" textLength="117.9746" x="470.01" y="146.8857">LocalDate start()</text><ellipse cx="461.01" cy="159.8359" fill="#84BE84" rx="3" ry="3" style="stroke:#038048;stroke-width:1;"/><text fill="#000000" font-family="sans-serif" font-size="14" lengthAdjust="spacing" textLength="111.7402" x="470.01" y="163.1826">LocalDate end()</text></g><!--class ProjectGetRq--><g class="entity" data-entity="ProjectGetRq" data-source-line="22" data-uid="ent0012" id="entity_ProjectGetRq"><rect fill="#F1F1F1" height="64.2969" rx="2.5" ry="2.5" style="stroke:#181818;stroke-width:0.5;" width="145.0684" x="55.47" y="263.08"/><ellipse cx="79.9424" cy="279.08" fill="#ADD1B2" rx="11" ry="11" style="stroke:#181818;stroke-width:1;"/><path d="M82.9112,284.7206 Q82.333,285.0175 81.6924,285.1581 Q81.0518,285.3144 80.3487,285.3144 Q77.8487,285.3144 76.5205,283.6738 Q75.208,282.0175 75.208,278.8925 Q75.208,275.7675 76.5205,274.1113 Q77.8487,272.455 80.3487,272.455 Q81.0518,272.455 81.6924,272.6113 Q82.3487,272.7675 82.9112,273.0644 L82.9112,275.7831 Q82.2862,275.205 81.6924,274.9394 Q81.0987,274.6581 80.4737,274.6581 Q79.1299,274.6581 78.4424,275.7363 Q77.7549,276.7988 77.7549,278.8925 Q77.7549,280.9863 78.4424,282.0644 Q79.1299,283.1269 80.4737,283.1269 Q81.0987,283.1269 81.6924,282.8613 Q82.2862,282.58 82.9112,282.0019 L82.9112,284.7206 Z " fill="#000000"/><text fill="#000000" font-family="sans-serif" font-size="14" lengthAdjust="spacing" textLength="92.0186" x="96.0474" y="283.9267">ProjectGetRq</text><line style="stroke:#181818;stroke-width:0.5;" x1="56.47" x2="199.5384" y1="295.08" y2="295.08"/><line style="stroke:#181818;stroke-width:0.5;" x1="56.47" x2="199.5384" y1="303.08" y2="303.08"/><ellipse cx="66.47" cy="316.7284" fill="#84BE84" rx="3" ry="3" style="stroke:#038048;stroke-width:1;"/><text fill="#000000" font-family="sans-serif" font-size="14" lengthAdjust="spacing" textLength="119.0684" x="75.47" y="320.0751">String projectId()</text></g><!--class ProjectListResp--><g class="entity" data-entity="ProjectListResp" data-source-line="25" data-uid="ent0013" id="entity_ProjectListResp"><rect fill="#F1F1F1" height="64.2969" rx="2.5" ry="2.5" style="stroke:#181818;stroke-width:0.5;" width="222.2119" x="628.89" y="73.6"/><ellipse cx="682.0223" cy="89.6" fill="#ADD1B2" rx="11" ry="11" style="stroke:#181818;stroke-width:1;"/><path d="M684.9911,95.2406 Q684.4129,95.5375 683.7723,95.6781 Q683.1317,95.8344 682.4286,95.8344 Q679.9286,95.8344 678.6004,94.1938 Q677.2879,92.5375 677.2879,89.4125 Q677.2879,86.2875 678.6004,84.6313 Q679.9286,82.975 682.4286,82.975 Q683.1317,82.975 683.7723,83.1313 Q684.4286,83.2875 684.9911,83.5844 L684.9911,86.3031 Q684.3661,85.725 683.7723,85.4594 Q683.1786,85.1781 682.5536,85.1781 Q681.2098,85.1781 680.5223,86.2563 Q679.8348,87.3188 679.8348,89.4125 Q679.8348,91.5063 680.5223,92.5844 Q681.2098,93.6469 682.5536,93.6469 Q683.1786,93.6469 683.7723,93.3813 Q684.3661,93.1 684.9911,92.5219 L684.9911,95.2406 Z " fill="#000000"/><text fill="#000000" font-family="sans-serif" font-size="14" lengthAdjust="spacing" textLength="107.4473" x="702.5223" y="94.4467">ProjectListResp</text><line style="stroke:#181818;stroke-width:0.5;" x1="629.89" x2="850.1019" y1="105.6" y2="105.6"/><line style="stroke:#181818;stroke-width:0.5;" x1="629.89" x2="850.1019" y1="113.6" y2="113.6"/><ellipse cx="639.89" cy="127.2484" fill="#84BE84" rx="3" ry="3" style="stroke:#038048;stroke-width:1;"/><text fill="#000000" font-family="sans-serif" font-size="14" lengthAdjust="spacing" textLength="196.2119" x="648.89" y="130.5951">List&lt;ProjectMsg&gt; projects()</text></g><!--class ProjectMsg--><g class="entity" data-entity="ProjectMsg" data-source-line="28" data-uid="ent0014" id="entity_ProjectMsg"><rect fill="#F1F1F1" height="129.4844" rx="2.5" ry="2.5" style="stroke:#181818;stroke-width:0.5;" width="177.4365" x="651.28" y="230.49"/><ellipse cx="697.3918" cy="246.49" fill="#ADD1B2" rx="11" ry="11" style="stroke:#181818;stroke-width:1;"/><path d="M700.3606,252.1306 Q699.7824,252.4275 699.1418,252.5681 Q698.5012,252.7244 697.7981,252.7244 Q695.2981,252.7244 693.9699,251.0838 Q692.6574,249.4275 692.6574,246.3025 Q692.6574,243.1775 693.9699,241.5213 Q695.2981,239.865 697.7981,239.865 Q698.5012,239.865 699.1418,240.0213 Q699.7981,240.1775 700.3606,240.4744 L700.3606,243.1931 Q699.7356,242.615 699.1418,242.3494 Q698.5481,242.0681 697.9231,242.0681 Q696.5793,242.0681 695.8918,243.1463 Q695.2043,244.2088 695.2043,246.3025 Q695.2043,248.3963 695.8918,249.4744 Q696.5793,250.5369 697.9231,250.5369 Q698.5481,250.5369 699.1418,250.2713 Q699.7356,249.99 700.3606,249.4119 L700.3606,252.1306 Z " fill="#000000"/><text fill="#000000" font-family="sans-serif" font-size="14" lengthAdjust="spacing" textLength="76.7129" x="717.8918" y="251.3367">ProjectMsg</text><line style="stroke:#181818;stroke-width:0.5;" x1="652.28" x2="827.7165" y1="262.49" y2="262.49"/><line style="stroke:#181818;stroke-width:0.5;" x1="652.28" x2="827.7165" y1="270.49" y2="270.49"/><ellipse cx="662.28" cy="284.1384" fill="#84BE84" rx="3" ry="3" style="stroke:#038048;stroke-width:1;"/><text fill="#000000" font-family="sans-serif" font-size="14" lengthAdjust="spacing" textLength="69.9316" x="671.28" y="287.4851">String id()</text><ellipse cx="662.28" cy="300.4353" fill="#84BE84" rx="3" ry="3" style="stroke:#038048;stroke-width:1;"/><text fill="#000000" font-family="sans-serif" font-size="14" lengthAdjust="spacing" textLength="96.8584" x="671.28" y="303.782">String name()</text><ellipse cx="662.28" cy="316.7322" fill="#84BE84" rx="3" ry="3" style="stroke:#038048;stroke-width:1;"/><text fill="#000000" font-family="sans-serif" font-size="14" lengthAdjust="spacing" textLength="134.9961" x="671.28" y="320.0789">String description()</text><ellipse cx="662.28" cy="333.0291" fill="#84BE84" rx="3" ry="3" style="stroke:#038048;stroke-width:1;"/><text fill="#000000" font-family="sans-serif" font-size="14" lengthAdjust="spacing" textLength="151.4365" x="671.28" y="336.3757">LocalDate startDate()</text><ellipse cx="662.28" cy="349.3259" fill="#84BE84" rx="3" ry="3" style="stroke:#038048;stroke-width:1;"/><text fill="#000000" font-family="sans-serif" font-size="14" lengthAdjust="spacing" textLength="145.2021" x="671.28" y="352.6726">LocalDate endDate()</text></g><!--class ProjectUpdateRq--><g class="entity" data-entity="ProjectUpdateRq" data-source-line="35" data-uid="ent0015" id="entity_ProjectUpdateRq"><rect fill="#F1F1F1" height="80.5938" rx="2.5" ry="2.5" style="stroke:#181818;stroke-width:0.5;" width="204.165" x="885.92" y="65.45"/><ellipse cx="925.398" cy="81.45" fill="#ADD1B2" rx="11" ry="11" style="stroke:#181818;stroke-width:1;"/><path d="M928.3667,87.0906 Q927.7886,87.3875 927.148,87.5281 Q926.5074,87.6844 925.8042,87.6844 Q923.3042,87.6844 921.9761,86.0438 Q920.6636,84.3875 920.6636,81.2625 Q920.6636,78.1375 921.9761,76.4813 Q923.3042,74.825 925.8042,74.825 Q926.5074,74.825 927.148,74.9813 Q927.8042,75.1375 928.3667,75.4344 L928.3667,78.1531 Q927.7417,77.575 927.148,77.3094 Q926.5542,77.0281 925.9292,77.0281 Q924.5855,77.0281 923.898,78.1063 Q923.2105,79.1688 923.2105,81.2625 Q923.2105,83.3563 923.898,84.4344 Q924.5855,85.4969 925.9292,85.4969 Q926.5542,85.4969 927.148,85.2313 Q927.7417,84.95 928.3667,84.3719 L928.3667,87.0906 Z " fill="#000000"/><text fill="#000000" font-family="sans-serif" font-size="14" lengthAdjust="spacing" textLength="117.7695" x="944.8375" y="86.2967">ProjectUpdateRq</text><line style="stroke:#181818;stroke-width:0.5;" x1="886.92" x2="1089.085" y1="97.45" y2="97.45"/><line style="stroke:#181818;stroke-width:0.5;" x1="886.92" x2="1089.085" y1="105.45" y2="105.45"/><ellipse cx="896.92" cy="119.0984" fill="#84BE84" rx="3" ry="3" style="stroke:#038048;stroke-width:1;"/><text fill="#000000" font-family="sans-serif" font-size="14" lengthAdjust="spacing" textLength="69.9316" x="905.92" y="122.4451">String id()</text><ellipse cx="896.92" cy="135.3953" fill="#84BE84" rx="3" ry="3" style="stroke:#038048;stroke-width:1;"/><text fill="#000000" font-family="sans-serif" font-size="14" lengthAdjust="spacing" textLength="178.165" x="905.92" y="138.742">ProjectCreateRq project()</text></g><!--class TaskCreateRq--><g class="entity" data-entity="TaskCreateRq" data-source-line="39" data-uid="ent0016" id="entity_TaskCreateRq"><rect fill="#F1F1F1" height="80.5938" rx="2.5" ry="2.5" style="stroke:#181818;stroke-width:0.5;" width="162.1719" x="1347.91" y="65.45"/><ellipse cx="1377.3996" cy="81.45" fill="#ADD1B2" rx="11" ry="11" style="stroke:#181818;stroke-width:1;"/><path d="M1380.3684,87.0906 Q1379.7903,87.3875 1379.1496,87.5281 Q1378.509,87.6844 1377.8059,87.6844 Q1375.3059,87.6844 1373.9778,86.0438 Q1372.6653,84.3875 1372.6653,81.2625 Q1372.6653,78.1375 1373.9778,76.4813 Q1375.3059,74.825 1377.8059,74.825 Q1378.509,74.825 1379.1496,74.9813 Q1379.8059,75.1375 1380.3684,75.4344 L1380.3684,78.1531 Q1379.7434,77.575 1379.1496,77.3094 Q1378.5559,77.0281 1377.9309,77.0281 Q1376.5871,77.0281 1375.8996,78.1063 Q1375.2121,79.1688 1375.2121,81.2625 Q1375.2121,83.3563 1375.8996,84.4344 Q1376.5871,85.4969 1377.9309,85.4969 Q1378.5559,85.4969 1379.1496,85.2313 Q1379.7434,84.95 1380.3684,84.3719 L1380.3684,87.0906 Z " fill="#000000"/><text fill="#000000" font-family="sans-serif" font-size="14" lengthAdjust="spacing" textLength="97.9727" x="1394.6196" y="86.2967">TaskCreateRq</text><line style="stroke:#181818;stroke-width:0.5;" x1="1348.91" x2="1509.0819" y1="97.45" y2="97.45"/><line style="stroke:#181818;stroke-width:0.5;" x1="1348.91" x2="1509.0819" y1="105.45" y2="105.45"/><ellipse cx="1358.91" cy="119.0984" fill="#84BE84" rx="3" ry="3" style="stroke:#038048;stroke-width:1;"/><text fill="#000000" font-family="sans-serif" font-size="14" lengthAdjust="spacing" textLength="119.0684" x="1367.91" y="122.4451">String projectId()</text><ellipse cx="1358.91" cy="135.3953" fill="#84BE84" rx="3" ry="3" style="stroke:#038048;stroke-width:1;"/><text fill="#000000" font-family="sans-serif" font-size="14" lengthAdjust="spacing" textLength="136.1719" x="1367.91" y="138.742">TaskNewMsg task()</text></g><!--class TaskListResp--><g class="entity" data-entity="TaskListResp" data-source-line="43" data-uid="ent0017" id="entity_TaskListResp"><rect fill="#F1F1F1" height="64.2969" rx="2.5" ry="2.5" style="stroke:#181818;stroke-width:0.5;" width="186.8633" x="1125.57" y="73.6"/><ellipse cx="1169.0716" cy="89.6" fill="#ADD1B2" rx="11" ry="11" style="stroke:#181818;stroke-width:1;"/><path d="M1172.0404,95.2406 Q1171.4622,95.5375 1170.8216,95.6781 Q1170.181,95.8344 1169.4779,95.8344 Q1166.9779,95.8344 1165.6497,94.1938 Q1164.3372,92.5375 1164.3372,89.4125 Q1164.3372,86.2875 1165.6497,84.6313 Q1166.9779,82.975 1169.4779,82.975 Q1170.181,82.975 1170.8216,83.1313 Q1171.4779,83.2875 1172.0404,83.5844 L1172.0404,86.3031 Q1171.4154,85.725 1170.8216,85.4594 Q1170.2279,85.1781 1169.6029,85.1781 Q1168.2591,85.1781 1167.5716,86.2563 Q1166.8841,87.3188 1166.8841,89.4125 Q1166.8841,91.5063 1167.5716,92.5844 Q1168.2591,93.6469 1169.6029,93.6469 Q1170.2279,93.6469 1170.8216,93.3813 Q1171.4154,93.1 1172.0404,92.5219 L1172.0404,95.2406 Z " fill="#000000"/><text fill="#000000" font-family="sans-serif" font-size="14" lengthAdjust="spacing" textLength="91.5264" x="1189.4053" y="94.4467">TaskListResp</text><line style="stroke:#181818;stroke-width:0.5;" x1="1126.57" x2="1311.4333" y1="105.6" y2="105.6"/><line style="stroke:#181818;stroke-width:0.5;" x1="1126.57" x2="1311.4333" y1="113.6" y2="113.6"/><ellipse cx="1136.57" cy="127.2484" fill="#84BE84" rx="3" ry="3" style="stroke:#038048;stroke-width:1;"/><text fill="#000000" font-family="sans-serif" font-size="14" lengthAdjust="spacing" textLength="160.8633" x="1145.57" y="130.5951">List&lt;TaskMsg&gt; tasks()</text></g><!--class TaskMsg--><g class="entity" data-entity="TaskMsg" data-source-line="46" data-uid="ent0018" id="entity_TaskMsg"><rect fill="#F1F1F1" height="113.1875" rx="2.5" ry="2.5" style="stroke:#181818;stroke-width:0.5;" width="171.626" x="1133.19" y="238.63"/><ellipse cx="1184.357" cy="254.63" fill="#ADD1B2" rx="11" ry="11" style="stroke:#181818;stroke-width:1;"/><path d="M1187.3257,260.2706 Q1186.7476,260.5675 1186.107,260.7081 Q1185.4664,260.8644 1184.7632,260.8644 Q1182.2632,260.8644 1180.9351,259.2238 Q1179.6226,257.5675 1179.6226,254.4425 Q1179.6226,251.3175 1180.9351,249.6613 Q1182.2632,248.005 1184.7632,248.005 Q1185.4664,248.005 1186.107,248.1613 Q1186.7632,248.3175 1187.3257,248.6144 L1187.3257,251.3331 Q1186.7007,250.755 1186.107,250.4894 Q1185.5132,250.2081 1184.8882,250.2081 Q1183.5445,250.2081 1182.857,251.2863 Q1182.1695,252.3488 1182.1695,254.4425 Q1182.1695,256.5363 1182.857,257.6144 Q1183.5445,258.6769 1184.8882,258.6769 Q1185.5132,258.6769 1186.107,258.4113 Q1186.7007,258.13 1187.3257,257.5519 L1187.3257,260.2706 Z " fill="#000000"/><text fill="#000000" font-family="sans-serif" font-size="14" lengthAdjust="spacing" textLength="60.792" x="1204.857" y="259.4767">TaskMsg</text><line style="stroke:#181818;stroke-width:0.5;" x1="1134.19" x2="1303.816" y1="270.63" y2="270.63"/><line style="stroke:#181818;stroke-width:0.5;" x1="1134.19" x2="1303.816" y1="278.63" y2="278.63"/><ellipse cx="1144.19" cy="292.2784" fill="#84BE84" rx="3" ry="3" style="stroke:#038048;stroke-width:1;"/><text fill="#000000" font-family="sans-serif" font-size="14" lengthAdjust="spacing" textLength="69.9316" x="1153.19" y="295.6251">String id()</text><ellipse cx="1144.19" cy="308.5753" fill="#84BE84" rx="3" ry="3" style="stroke:#038048;stroke-width:1;"/><text fill="#000000" font-family="sans-serif" font-size="14" lengthAdjust="spacing" textLength="96.8584" x="1153.19" y="311.922">String name()</text><ellipse cx="1144.19" cy="324.8722" fill="#84BE84" rx="3" ry="3" style="stroke:#038048;stroke-width:1;"/><text fill="#000000" font-family="sans-serif" font-size="14" lengthAdjust="spacing" textLength="145.626" x="1153.19" y="328.2189">boolean completed()</text><ellipse cx="1144.19" cy="341.1691" fill="#84BE84" rx="3" ry="3" style="stroke:#038048;stroke-width:1;"/><text fill="#000000" font-family="sans-serif" font-size="14" lengthAdjust="spacing" textLength="116.9355" x="1153.19" y="344.5157">LocalDate date()</text></g><!--class TaskNewMsg--><g class="entity" data-entity="TaskNewMsg" data-source-line="52" data-uid="ent0019" id="entity_TaskNewMsg"><rect fill="#F1F1F1" height="113.1875" rx="2.5" ry="2.5" style="stroke:#181818;stroke-width:0.5;" width="171.626" x="1439.19" y="238.63"/><ellipse cx="1475.924" cy="254.63" fill="#ADD1B2" rx="11" ry="11" style="stroke:#181818;stroke-width:1;"/><path d="M1478.8928,260.2706 Q1478.3147,260.5675 1477.674,260.7081 Q1477.0334,260.8644 1476.3303,260.8644 Q1473.8303,260.8644 1472.5022,259.2238 Q1471.1897,257.5675 1471.1897,254.4425 Q1471.1897,251.3175 1472.5022,249.6613 Q1473.8303,248.005 1476.3303,248.005 Q1477.0334,248.005 1477.674,248.1613 Q1478.3303,248.3175 1478.8928,248.6144 L1478.8928,251.3331 Q1478.2678,250.755 1477.674,250.4894 Q1477.0803,250.2081 1476.4553,250.2081 Q1475.1115,250.2081 1474.424,251.2863 Q1473.7365,252.3488 1473.7365,254.4425 Q1473.7365,256.5363 1474.424,257.6144 Q1475.1115,258.6769 1476.4553,258.6769 Q1477.0803,258.6769 1477.674,258.4113 Q1478.2678,258.13 1478.8928,257.5519 L1478.8928,260.2706 Z " fill="#000000"/><text fill="#000000" font-family="sans-serif" font-size="14" lengthAdjust="spacing" textLength="91.3281" x="1494.7538" y="259.4767">TaskNewMsg</text><line style="stroke:#181818;stroke-width:0.5;" x1="1440.19" x2="1609.816" y1="270.63" y2="270.63"/><line style="stroke:#181818;stroke-width:0.5;" x1="1440.19" x2="1609.816" y1="278.63" y2="278.63"/><ellipse cx="1450.19" cy="292.2784" fill="#84BE84" rx="3" ry="3" style="stroke:#038048;stroke-width:1;"/><text fill="#000000" font-family="sans-serif" font-size="14" lengthAdjust="spacing" textLength="96.8584" x="1459.19" y="295.6251">String name()</text><ellipse cx="1450.19" cy="308.5753" fill="#84BE84" rx="3" ry="3" style="stroke:#038048;stroke-width:1;"/><text fill="#000000" font-family="sans-serif" font-size="14" lengthAdjust="spacing" textLength="134.9961" x="1459.19" y="311.922">String description()</text><ellipse cx="1450.19" cy="324.8722" fill="#84BE84" rx="3" ry="3" style="stroke:#038048;stroke-width:1;"/><text fill="#000000" font-family="sans-serif" font-size="14" lengthAdjust="spacing" textLength="145.626" x="1459.19" y="328.2189">boolean completed()</text><ellipse cx="1450.19" cy="341.1691" fill="#84BE84" rx="3" ry="3" style="stroke:#038048;stroke-width:1;"/><text fill="#000000" font-family="sans-serif" font-size="14" lengthAdjust="spacing" textLength="116.9355" x="1459.19" y="344.5157">LocalDate date()</text></g><!--class TaskRq--><g class="entity" data-entity="TaskRq" data-source-line="58" data-uid="ent0020" id="entity_TaskRq"><rect fill="#F1F1F1" height="80.5938" rx="2.5" ry="2.5" style="stroke:#181818;stroke-width:0.5;" width="145.0684" x="235.47" y="254.93"/><ellipse cx="278.3348" cy="270.93" fill="#ADD1B2" rx="11" ry="11" style="stroke:#181818;stroke-width:1;"/><path d="M281.3036,276.5706 Q280.7255,276.8675 280.0848,277.0081 Q279.4442,277.1644 278.7411,277.1644 Q276.2411,277.1644 274.913,275.5238 Q273.6005,273.8675 273.6005,270.7425 Q273.6005,267.6175 274.913,265.9613 Q276.2411,264.305 278.7411,264.305 Q279.4442,264.305 280.0848,264.4613 Q280.7411,264.6175 281.3036,264.9144 L281.3036,267.6331 Q280.6786,267.055 280.0848,266.7894 Q279.4911,266.5081 278.8661,266.5081 Q277.5223,266.5081 276.8348,267.5863 Q276.1473,268.6488 276.1473,270.7425 Q276.1473,272.8363 276.8348,273.9144 Q277.5223,274.9769 278.8661,274.9769 Q279.4911,274.9769 280.0848,274.7113 Q280.6786,274.43 281.3036,273.8519 L281.3036,276.5706 Z " fill="#000000"/><text fill="#000000" font-family="sans-serif" font-size="14" lengthAdjust="spacing" textLength="51.1465" x="298.527" y="275.7767">TaskRq</text><line style="stroke:#181818;stroke-width:0.5;" x1="236.47" x2="379.5384" y1="286.93" y2="286.93"/><line style="stroke:#181818;stroke-width:0.5;" x1="236.47" x2="379.5384" y1="294.93" y2="294.93"/><ellipse cx="246.47" cy="308.5784" fill="#84BE84" rx="3" ry="3" style="stroke:#038048;stroke-width:1;"/><text fill="#000000" font-family="sans-serif" font-size="14" lengthAdjust="spacing" textLength="119.0684" x="255.47" y="311.9251">String projectId()</text><ellipse cx="246.47" cy="324.8753" fill="#84BE84" rx="3" ry="3" style="stroke:#038048;stroke-width:1;"/><text fill="#000000" font-family="sans-serif" font-size="14" lengthAdjust="spacing" textLength="99.6406" x="255.47" y="328.222">String taskId()</text></g><!--class TaskUpdateRq--><g class="entity" data-entity="TaskUpdateRq" data-source-line="62" data-uid="ent0021" id="entity_TaskUpdateRq"><rect fill="#F1F1F1" height="96.8906" rx="2.5" ry="2.5" style="stroke:#181818;stroke-width:0.5;" width="162.1719" x="1544.91" y="57.3"/><ellipse cx="1572.6555" cy="73.3" fill="#ADD1B2" rx="11" ry="11" style="stroke:#181818;stroke-width:1;"/><path d="M1575.6242,78.9406 Q1575.0461,79.2375 1574.4055,79.3781 Q1573.7648,79.5344 1573.0617,79.5344 Q1570.5617,79.5344 1569.2336,77.8938 Q1567.9211,76.2375 1567.9211,73.1125 Q1567.9211,69.9875 1569.2336,68.3313 Q1570.5617,66.675 1573.0617,66.675 Q1573.7648,66.675 1574.4055,66.8313 Q1575.0617,66.9875 1575.6242,67.2844 L1575.6242,70.0031 Q1574.9992,69.425 1574.4055,69.1594 Q1573.8117,68.8781 1573.1867,68.8781 Q1571.843,68.8781 1571.1555,69.9563 Q1570.468,71.0188 1570.468,73.1125 Q1570.468,75.2063 1571.1555,76.2844 Q1571.843,77.3469 1573.1867,77.3469 Q1573.8117,77.3469 1574.4055,77.0813 Q1574.9992,76.8 1575.6242,76.2219 L1575.6242,78.9406 Z " fill="#000000"/><text fill="#000000" font-family="sans-serif" font-size="14" lengthAdjust="spacing" textLength="101.8486" x="1589.4878" y="78.1467">TaskUpdateRq</text><line style="stroke:#181818;stroke-width:0.5;" x1="1545.91" x2="1706.0819" y1="89.3" y2="89.3"/><line style="stroke:#181818;stroke-width:0.5;" x1="1545.91" x2="1706.0819" y1="97.3" y2="97.3"/><ellipse cx="1555.91" cy="110.9484" fill="#84BE84" rx="3" ry="3" style="stroke:#038048;stroke-width:1;"/><text fill="#000000" font-family="sans-serif" font-size="14" lengthAdjust="spacing" textLength="119.0684" x="1564.91" y="114.2951">String projectId()</text><ellipse cx="1555.91" cy="127.2453" fill="#84BE84" rx="3" ry="3" style="stroke:#038048;stroke-width:1;"/><text fill="#000000" font-family="sans-serif" font-size="14" lengthAdjust="spacing" textLength="99.6406" x="1564.91" y="130.592">String taskId()</text><ellipse cx="1555.91" cy="143.5422" fill="#84BE84" rx="3" ry="3" style="stroke:#038048;stroke-width:1;"/><text fill="#000000" font-family="sans-serif" font-size="14" lengthAdjust="spacing" textLength="136.1719" x="1564.91" y="146.8889">TaskNewMsg task()</text></g><!--class TasksInProjectRq--><g class="entity" data-entity="TasksInProjectRq" data-source-line="67" data-uid="ent0022" id="entity_TasksInProjectRq"><rect fill="#F1F1F1" height="64.2969" rx="2.5" ry="2.5" style="stroke:#181818;stroke-width:0.5;" width="151.8955" x="415.05" y="263.08"/><ellipse cx="430.05" cy="279.08" fill="#ADD1B2" rx="11" ry="11" style="stroke:#181818;stroke-width:1;"/><path d="M433.0188,284.7206 Q432.4406,285.0175 431.8,285.1581 Q431.1594,285.3144 430.4563,285.3144 Q427.9563,285.3144 426.6281,283.6738 Q425.3156,282.0175 425.3156,278.8925 Q425.3156,275.7675 426.6281,274.1113 Q427.9563,272.455 430.4563,272.455 Q431.1594,272.455 431.8,272.6113 Q432.4563,272.7675 433.0188,273.0644 L433.0188,275.7831 Q432.3938,275.205 431.8,274.9394 Q431.2063,274.6581 430.5813,274.6581 Q429.2375,274.6581 428.55,275.7363 Q427.8625,276.7988 427.8625,278.8925 Q427.8625,280.9863 428.55,282.0644 Q429.2375,283.1269 430.5813,283.1269 Q431.2063,283.1269 431.8,282.8613 Q432.3938,282.58 433.0188,282.0019 L433.0188,284.7206 Z " fill="#000000"/><text fill="#000000" font-family="sans-serif" font-size="14" lengthAdjust="spacing" textLength="119.8955" x="444.05" y="283.9267">TasksInProjectRq</text><line style="stroke:#181818;stroke-width:0.5;" x1="416.05" x2="565.9455" y1="295.08" y2="295.08"/><line style="stroke:#181818;stroke-width:0.5;" x1="416.05" x2="565.9455" y1="303.08" y2="303.08"/><ellipse cx="426.05" cy="316.7284" fill="#84BE84" rx="3" ry="3" style="stroke:#038048;stroke-width:1;"/><text fill="#000000" font-family="sans-serif" font-size="14" lengthAdjust="spacing" textLength="119.0684" x="435.05" y="320.0751">String projectId()</text></g><!--link ProjectListResp to ProjectMsg--><g class="link" data-entity-1="ProjectListResp" data-entity-2="ProjectMsg" data-source-line="70" data-uid="lnk23" id="link_ProjectListResp_ProjectMsg"><path codeLine="70" d="M740,138.12 C740,163.14 740,193.01 740,224.05 " fill="none" id="ProjectListResp-to-ProjectMsg" style="stroke:#181818;stroke-width:1;"/><polygon fill="#181818" points="740,230.05,744,221.05,740,225.05,736,221.05,740,230.05" style="stroke:#181818;stroke-width:1;"/></g><!--link ProjectUpdateRq to ProjectCreateRq--><g class="link" data-entity-1="ProjectUpdateRq" data-entity-2="ProjectCreateRq" data-source-line="71" data-uid="lnk24" id="link_ProjectUpdateRq_ProjectCreateRq"><path codeLine="71" d="M988,146.5 C988,173.16 988,202.65 988,232.17 " fill="none" id="ProjectUpdateRq-to-ProjectCreateRq" style="stroke:#181818;stroke-width:1;"/><polygon fill="#181818" points="988,238.17,992,229.17,988,233.17,984,229.17,988,238.17" style="stroke:#181818;stroke-width:1;"/></g><!--link TaskCreateRq to TaskNewMsg--><g class="link" data-entity-1="TaskCreateRq" data-entity-2="TaskNewMsg" data-source-line="72" data-uid="lnk25" id="link_TaskCreateRq_TaskNewMsg"><path codeLine="72" d="M1449.36,146.5 C1463.01,173.16 1478.4462,203.309 1493.5562,232.829 " fill="none" id="TaskCreateRq-to-TaskNewMsg" style="stroke:#181818;stroke-width:1;"/><polygon fill="#181818" points="1496.29,238.17,1495.7499,228.336,1494.0118,233.7192,1488.6286,231.9811,1496.29,238.17" style="stroke:#181818;stroke-width:1;"/></g><!--link TaskListResp to TaskMsg--><g class="link" data-entity-1="TaskListResp" data-entity-2="TaskMsg" data-source-line="73" data-uid="lnk26" id="link_TaskListResp_TaskMsg"><path codeLine="73" d="M1219,138.12 C1219,165.44 1219,199.67 1219,232.45 " fill="none" id="TaskListResp-to-TaskMsg" style="stroke:#181818;stroke-width:1;"/><polygon fill="#181818" points="1219,238.45,1223,229.45,1219,233.45,1215,229.45,1219,238.45" style="stroke:#181818;stroke-width:1;"/></g><!--link TaskUpdateRq to TaskNewMsg--><g class="link" data-entity-1="TaskUpdateRq" data-entity-2="TaskNewMsg" data-source-line="74" data-uid="lnk27" id="link_TaskUpdateRq_TaskNewMsg"><path codeLine="74" d="M1600.25,154.54 C1586.52,180.03 1572.3846,206.2672 1558.0346,232.9172 " fill="none" id="TaskUpdateRq-to-TaskNewMsg" style="stroke:#181818;stroke-width:1;"/><polygon fill="#181818" points="1555.19,238.2,1562.9788,232.1722,1557.5605,233.7976,1555.935,228.3794,1555.19,238.2" style="stroke:#181818;stroke-width:1;"/></g><!--SRC=[dLJBJiCm4BpdAqnF8DHy0Ugb5QXIGLKf7s3YRMNoSF2Q8e7uT-p6LX8hXMnEITOPpNXsTgzgpOybPny8wyg0Ba58Rc3BivmV0Tc15mX9aXKSaSrMK821fIfhznHxZZdktcUC8nDmIW_ogz0gorEZX4g5AhciKWHzaXcamgXq6C- -4yPkdusMrP7LMhr1PjRY-YRv2RpRfhZKOBLH22DWZwdY9LYIjY00Corh8rNLr3SguyNA8XaQhirU1a1x09NmvLXiSzS9OWDmj2ttih2Tcy0KW0tJHbaUp6KTxcW_2rbAqpEfTIroPy2P0QqFO2O8FQD6-x6HQ7Q0DPac0BqVzklEdppYSH4uSO3IdfFPBAPt9Iak63qodkvje0c-72j-gSMqMGh0GUtnl7dBklnkwEc3t4LT38Ajkl-UuDDvQ-nhJ4oFHXVLoOKhdqFXM32c8SN10yPbuLMf0dZ5ih13uuwBgDsj8JH5taJQmfoaZXg3lmFWgwuj_UNWeFJGTr4Ksl-ZYElAJmjLJnVvnrASjFdcymLrYIMJjWULA0n_GbyNewdQZYNqtK1Y8L7GFMilyWi0]--></g></svg>