<svg xmlns="http://www.w3.org/2000/svg" xmlns:xlink="http://www.w3.org/1999/xlink" contentStyleType="text/css" data-diagram-type="CLASS" height="393px" preserveAspectRatio="none" style="width:1588px;height:393px;background:#FFFFFF;" version="1.1" viewBox="0 0 1588 393" width="1588px" zoomAndPan="magnify"><defs/><g><!--cluster exception--><g class="cluster" data-entity="exception" data-source-line="3" data-uid="ent0007" id="cluster_exception"><path d="M8.5,6 L289.1924,6 A3.75,3.75 0 0 1 291.6924,8.5 L298.6924,28.2969 L1578.5,28.2969 A2.5,2.5 0 0 1 1581,30.7969 L1581,383.69 A2.5,2.5 0 0 1 1578.5,386.19 L8.5,386.19 A2.5,2.5 0 0 1 6,383.69 L6,8.5 A2.5,2.5 0 0 1 8.5,6 " fill="none" style="stroke:#000000;stroke-width:1.5;"/><line style="stroke:#000000;stroke-width:1.5;" x1="6" x2="298.6924" y1="28.2969" y2="28.2969"/><text fill="#000000" font-family="sans-serif" font-size="14" font-weight="bold" lengthAdjust="spacing" textLength="279.6924" x="10" y="20.9951">dev.fizlrock.todo.domain.exception</text></g><!--class EntityNotFoundException--><g class="entity" data-entity="EntityNotFoundException" data-source-line="3" data-uid="ent0002" id="entity_EntityNotFoundException"><rect fill="#F1F1F1" height="64.2969" rx="2.5" ry="2.5" style="stroke:#181818;stroke-width:0.5;" width="209.7959" x="270.1" y="165.3"/><ellipse cx="285.1" cy="181.3" fill="#A9DCDF" rx="11" ry="11" style="stroke:#181818;stroke-width:1;"/><path d="M285.2094,176.6438 L284.0531,181.7219 L286.3813,181.7219 L285.2094,176.6438 Z M283.725,174.4094 L286.7094,174.4094 L290.0688,186.8 L287.6156,186.8 L286.85,183.7375 L283.5688,183.7375 L282.8188,186.8 L280.3813,186.8 L283.725,174.4094 Z " fill="#000000"/><text fill="#000000" font-family="sans-serif" font-size="14" font-style="italic" lengthAdjust="spacing" textLength="177.7959" x="299.1" y="186.1467">EntityNotFoundException</text><line style="stroke:#181818;stroke-width:0.5;" x1="271.1" x2="478.8959" y1="197.3" y2="197.3"/><line style="stroke:#181818;stroke-width:0.5;" x1="271.1" x2="478.8959" y1="205.3" y2="205.3"/><ellipse cx="281.1" cy="218.9484" fill="#84BE84" rx="3" ry="3" style="stroke:#038048;stroke-width:1;"/><text fill="#000000" font-family="sans-serif" font-size="14" lengthAdjust="spacing" textLength="141.5039" x="290.1" y="222.2951">String getMessage()</text></g><!--class IllegalNameException--><g class="entity" data-entity="IllegalNameException" data-source-line="6" data-uid="ent0008" id="entity_IllegalNameException"><rect fill="#F1F1F1" height="96.8906" rx="2.5" ry="2.5" style="stroke:#181818;stroke-width:0.5;" width="184.3252" x="794.84" y="149"/><ellipse cx="809.84" cy="165" fill="#A9DCDF" rx="11" ry="11" style="stroke:#181818;stroke-width:1;"/><path d="M809.9494,160.3438 L808.7931,165.4219 L811.1213,165.4219 L809.9494,160.3438 Z M808.465,158.1094 L811.4494,158.1094 L814.8088,170.5 L812.3556,170.5 L811.59,167.4375 L808.3088,167.4375 L807.5588,170.5 L805.1213,170.5 L808.465,158.1094 Z " fill="#000000"/><text fill="#000000" font-family="sans-serif" font-size="14" font-style="italic" lengthAdjust="spacing" textLength="152.3252" x="823.84" y="169.8467">IllegalNameException</text><line style="stroke:#181818;stroke-width:0.5;" x1="795.84" x2="978.1652" y1="181" y2="181"/><ellipse cx="805.84" cy="194.6484" fill="none" rx="3" ry="3" style="stroke:#038048;stroke-width:1;"/><text fill="#000000" font-family="sans-serif" font-size="14" lengthAdjust="spacing" textLength="85.9346" x="814.84" y="197.9951">String name</text><ellipse cx="805.84" cy="210.9453" fill="none" rx="3" ry="3" style="stroke:#038048;stroke-width:1;"/><text fill="#000000" font-family="sans-serif" font-size="14" lengthAdjust="spacing" textLength="93.9121" x="814.84" y="214.292">String reason</text><line style="stroke:#181818;stroke-width:0.5;" x1="795.84" x2="978.1652" y1="221.5938" y2="221.5938"/><ellipse cx="805.84" cy="235.2422" fill="#84BE84" rx="3" ry="3" style="stroke:#038048;stroke-width:1;"/><text fill="#000000" font-family="sans-serif" font-size="14" lengthAdjust="spacing" textLength="141.5039" x="814.84" y="238.5889">String getMessage()</text></g><!--class IllegalProjectDescriptionException--><g class="entity" data-entity="IllegalProjectDescriptionException" data-source-line="12" data-uid="ent0009" id="entity_IllegalProjectDescriptionException"><rect fill="#F1F1F1" height="96.8906" rx="2.5" ry="2.5" style="stroke:#181818;stroke-width:0.5;" width="271.21" x="1014.4" y="149"/><ellipse cx="1029.4" cy="165" fill="#ADD1B2" rx="11" ry="11" style="stroke:#181818;stroke-width:1;"/><path d="M1032.3688,170.6406 Q1031.7906,170.9375 1031.15,171.0781 Q1030.5094,171.2344 1029.8063,171.2344 Q1027.3063,171.2344 1025.9781,169.5938 Q1024.6656,167.9375 1024.6656,164.8125 Q1024.6656,161.6875 1025.9781,160.0313 Q1027.3063,158.375 1029.8063,158.375 Q1030.5094,158.375 1031.15,158.5313 Q1031.8063,158.6875 1032.3688,158.9844 L1032.3688,161.7031 Q1031.7438,161.125 1031.15,160.8594 Q1030.5563,160.5781 1029.9313,160.5781 Q1028.5875,160.5781 1027.9,161.6563 Q1027.2125,162.7188 1027.2125,164.8125 Q1027.2125,166.9063 1027.9,167.9844 Q1028.5875,169.0469 1029.9313,169.0469 Q1030.5563,169.0469 1031.15,168.7813 Q1031.7438,168.5 1032.3688,167.9219 L1032.3688,170.6406 Z " fill="#000000"/><text fill="#000000" font-family="sans-serif" font-size="14" lengthAdjust="spacing" textLength="239.21" x="1043.4" y="169.8467">IllegalProjectDescriptionException</text><line style="stroke:#181818;stroke-width:0.5;" x1="1015.4" x2="1284.61" y1="181" y2="181"/><ellipse cx="1025.4" cy="194.6484" fill="none" rx="3" ry="3" style="stroke:#038048;stroke-width:1;"/><text fill="#000000" font-family="sans-serif" font-size="14" lengthAdjust="spacing" textLength="124.0723" x="1034.4" y="197.9951">String description</text><ellipse cx="1025.4" cy="210.9453" fill="none" rx="3" ry="3" style="stroke:#038048;stroke-width:1;"/><text fill="#000000" font-family="sans-serif" font-size="14" lengthAdjust="spacing" textLength="93.9121" x="1034.4" y="214.292">String reason</text><line style="stroke:#181818;stroke-width:0.5;" x1="1015.4" x2="1284.61" y1="221.5938" y2="221.5938"/><ellipse cx="1025.4" cy="235.2422" fill="#84BE84" rx="3" ry="3" style="stroke:#038048;stroke-width:1;"/><text fill="#000000" font-family="sans-serif" font-size="14" lengthAdjust="spacing" textLength="141.5039" x="1034.4" y="238.5889">String getMessage()</text></g><!--class IllegalProjectNameException--><g class="entity" data-entity="IllegalProjectNameException" data-source-line="18" data-uid="ent0010" id="entity_IllegalProjectNameException"><rect fill="#F1F1F1" height="48" rx="2.5" ry="2.5" style="stroke:#181818;stroke-width:0.5;" width="232.7783" x="510.61" y="314.04"/><ellipse cx="525.61" cy="330.04" fill="#ADD1B2" rx="11" ry="11" style="stroke:#181818;stroke-width:1;"/><path d="M528.5788,335.6806 Q528.0006,335.9775 527.36,336.1181 Q526.7194,336.2744 526.0163,336.2744 Q523.5163,336.2744 522.1881,334.6338 Q520.8756,332.9775 520.8756,329.8525 Q520.8756,326.7275 522.1881,325.0713 Q523.5163,323.415 526.0163,323.415 Q526.7194,323.415 527.36,323.5713 Q528.0163,323.7275 528.5788,324.0244 L528.5788,326.7431 Q527.9538,326.165 527.36,325.8994 Q526.7663,325.6181 526.1413,325.6181 Q524.7975,325.6181 524.11,326.6963 Q523.4225,327.7588 523.4225,329.8525 Q523.4225,331.9463 524.11,333.0244 Q524.7975,334.0869 526.1413,334.0869 Q526.7663,334.0869 527.36,333.8213 Q527.9538,333.54 528.5788,332.9619 L528.5788,335.6806 Z " fill="#000000"/><text fill="#000000" font-family="sans-serif" font-size="14" lengthAdjust="spacing" textLength="200.7783" x="539.61" y="334.8867">IllegalProjectNameException</text><line style="stroke:#181818;stroke-width:0.5;" x1="511.61" x2="742.3883" y1="346.04" y2="346.04"/><line style="stroke:#181818;stroke-width:0.5;" x1="511.61" x2="742.3883" y1="354.04" y2="354.04"/></g><!--class IllegalTaskNameException--><g class="entity" data-entity="IllegalTaskNameException" data-source-line="20" data-uid="ent0011" id="entity_IllegalTaskNameException"><rect fill="#F1F1F1" height="48" rx="2.5" ry="2.5" style="stroke:#181818;stroke-width:0.5;" width="216.8574" x="778.57" y="314.04"/><ellipse cx="793.57" cy="330.04" fill="#ADD1B2" rx="11" ry="11" style="stroke:#181818;stroke-width:1;"/><path d="M796.5388,335.6806 Q795.9606,335.9775 795.32,336.1181 Q794.6794,336.2744 793.9763,336.2744 Q791.4763,336.2744 790.1481,334.6338 Q788.8356,332.9775 788.8356,329.8525 Q788.8356,326.7275 790.1481,325.0713 Q791.4763,323.415 793.9763,323.415 Q794.6794,323.415 795.32,323.5713 Q795.9763,323.7275 796.5388,324.0244 L796.5388,326.7431 Q795.9138,326.165 795.32,325.8994 Q794.7263,325.6181 794.1013,325.6181 Q792.7575,325.6181 792.07,326.6963 Q791.3825,327.7588 791.3825,329.8525 Q791.3825,331.9463 792.07,333.0244 Q792.7575,334.0869 794.1013,334.0869 Q794.7263,334.0869 795.32,333.8213 Q795.9138,333.54 796.5388,332.9619 L796.5388,335.6806 Z " fill="#000000"/><text fill="#000000" font-family="sans-serif" font-size="14" lengthAdjust="spacing" textLength="184.8574" x="807.57" y="334.8867">IllegalTaskNameException</text><line style="stroke:#181818;stroke-width:0.5;" x1="779.57" x2="994.4274" y1="346.04" y2="346.04"/><line style="stroke:#181818;stroke-width:0.5;" x1="779.57" x2="994.4274" y1="354.04" y2="354.04"/></g><!--class ProjectNameDublicateException--><g class="entity" data-entity="ProjectNameDublicateException" data-source-line="22" data-uid="ent0012" id="entity_ProjectNameDublicateException"><rect fill="#F1F1F1" height="48" rx="2.5" ry="2.5" style="stroke:#181818;stroke-width:0.5;" width="257.5996" x="1030.2" y="314.04"/><ellipse cx="1045.2" cy="330.04" fill="#ADD1B2" rx="11" ry="11" style="stroke:#181818;stroke-width:1;"/><path d="M1048.1688,335.6806 Q1047.5906,335.9775 1046.95,336.1181 Q1046.3094,336.2744 1045.6063,336.2744 Q1043.1063,336.2744 1041.7781,334.6338 Q1040.4656,332.9775 1040.4656,329.8525 Q1040.4656,326.7275 1041.7781,325.0713 Q1043.1063,323.415 1045.6063,323.415 Q1046.3094,323.415 1046.95,323.5713 Q1047.6063,323.7275 1048.1688,324.0244 L1048.1688,326.7431 Q1047.5438,326.165 1046.95,325.8994 Q1046.3563,325.6181 1045.7313,325.6181 Q1044.3875,325.6181 1043.7,326.6963 Q1043.0125,327.7588 1043.0125,329.8525 Q1043.0125,331.9463 1043.7,333.0244 Q1044.3875,334.0869 1045.7313,334.0869 Q1046.3563,334.0869 1046.95,333.8213 Q1047.5438,333.54 1048.1688,332.9619 L1048.1688,335.6806 Z " fill="#000000"/><text fill="#000000" font-family="sans-serif" font-size="14" lengthAdjust="spacing" textLength="225.5996" x="1059.2" y="334.8867">ProjectNameDublicateException</text><line style="stroke:#181818;stroke-width:0.5;" x1="1031.2" x2="1286.7996" y1="346.04" y2="346.04"/><line style="stroke:#181818;stroke-width:0.5;" x1="1031.2" x2="1286.7996" y1="354.04" y2="354.04"/></g><!--class ProjectNotFoundException--><g class="entity" data-entity="ProjectNotFoundException" data-source-line="24" data-uid="ent0013" id="entity_ProjectNotFoundException"><rect fill="#F1F1F1" height="64.2969" rx="2.5" ry="2.5" style="stroke:#181818;stroke-width:0.5;" width="217.377" x="22.31" y="305.89"/><ellipse cx="37.31" cy="321.89" fill="#ADD1B2" rx="11" ry="11" style="stroke:#181818;stroke-width:1;"/><path d="M40.2788,327.5306 Q39.7006,327.8275 39.06,327.9681 Q38.4194,328.1244 37.7163,328.1244 Q35.2163,328.1244 33.8881,326.4838 Q32.5756,324.8275 32.5756,321.7025 Q32.5756,318.5775 33.8881,316.9213 Q35.2163,315.265 37.7163,315.265 Q38.4194,315.265 39.06,315.4213 Q39.7163,315.5775 40.2788,315.8744 L40.2788,318.5931 Q39.6538,318.015 39.06,317.7494 Q38.4663,317.4681 37.8413,317.4681 Q36.4975,317.4681 35.81,318.5463 Q35.1225,319.6088 35.1225,321.7025 Q35.1225,323.7963 35.81,324.8744 Q36.4975,325.9369 37.8413,325.9369 Q38.4663,325.9369 39.06,325.6713 Q39.6538,325.39 40.2788,324.8119 L40.2788,327.5306 Z " fill="#000000"/><text fill="#000000" font-family="sans-serif" font-size="14" lengthAdjust="spacing" textLength="185.377" x="51.31" y="326.7367">ProjectNotFoundException</text><line style="stroke:#181818;stroke-width:0.5;" x1="23.31" x2="238.687" y1="337.89" y2="337.89"/><line style="stroke:#181818;stroke-width:0.5;" x1="23.31" x2="238.687" y1="345.89" y2="345.89"/><ellipse cx="33.31" cy="359.5384" fill="#84BE84" rx="3" ry="3" style="stroke:#038048;stroke-width:1;"/><text fill="#000000" font-family="sans-serif" font-size="14" lengthAdjust="spacing" textLength="141.5039" x="42.31" y="362.8851">String getMessage()</text></g><!--class TaskNameDublicateException--><g class="entity" data-entity="TaskNameDublicateException" data-source-line="27" data-uid="ent0014" id="entity_TaskNameDublicateException"><rect fill="#F1F1F1" height="48" rx="2.5" ry="2.5" style="stroke:#181818;stroke-width:0.5;" width="241.6787" x="1323.16" y="314.04"/><ellipse cx="1338.16" cy="330.04" fill="#ADD1B2" rx="11" ry="11" style="stroke:#181818;stroke-width:1;"/><path d="M1341.1288,335.6806 Q1340.5506,335.9775 1339.91,336.1181 Q1339.2694,336.2744 1338.5663,336.2744 Q1336.0663,336.2744 1334.7381,334.6338 Q1333.4256,332.9775 1333.4256,329.8525 Q1333.4256,326.7275 1334.7381,325.0713 Q1336.0663,323.415 1338.5663,323.415 Q1339.2694,323.415 1339.91,323.5713 Q1340.5663,323.7275 1341.1288,324.0244 L1341.1288,326.7431 Q1340.5038,326.165 1339.91,325.8994 Q1339.3163,325.6181 1338.6913,325.6181 Q1337.3475,325.6181 1336.66,326.6963 Q1335.9725,327.7588 1335.9725,329.8525 Q1335.9725,331.9463 1336.66,333.0244 Q1337.3475,334.0869 1338.6913,334.0869 Q1339.3163,334.0869 1339.91,333.8213 Q1340.5038,333.54 1341.1288,332.9619 L1341.1288,335.6806 Z " fill="#000000"/><text fill="#000000" font-family="sans-serif" font-size="14" lengthAdjust="spacing" textLength="209.6787" x="1352.16" y="334.8867">TaskNameDublicateException</text><line style="stroke:#181818;stroke-width:0.5;" x1="1324.16" x2="1563.8387" y1="346.04" y2="346.04"/><line style="stroke:#181818;stroke-width:0.5;" x1="1324.16" x2="1563.8387" y1="354.04" y2="354.04"/></g><!--class TaskNotFoundException--><g class="entity" data-entity="TaskNotFoundException" data-source-line="29" data-uid="ent0015" id="entity_TaskNotFoundException"><rect fill="#F1F1F1" height="64.2969" rx="2.5" ry="2.5" style="stroke:#181818;stroke-width:0.5;" width="201.4561" x="274.27" y="305.89"/><ellipse cx="289.27" cy="321.89" fill="#ADD1B2" rx="11" ry="11" style="stroke:#181818;stroke-width:1;"/><path d="M292.2388,327.5306 Q291.6606,327.8275 291.02,327.9681 Q290.3794,328.1244 289.6763,328.1244 Q287.1763,328.1244 285.8481,326.4838 Q284.5356,324.8275 284.5356,321.7025 Q284.5356,318.5775 285.8481,316.9213 Q287.1763,315.265 289.6763,315.265 Q290.3794,315.265 291.02,315.4213 Q291.6763,315.5775 292.2388,315.8744 L292.2388,318.5931 Q291.6138,318.015 291.02,317.7494 Q290.4263,317.4681 289.8013,317.4681 Q288.4575,317.4681 287.77,318.5463 Q287.0825,319.6088 287.0825,321.7025 Q287.0825,323.7963 287.77,324.8744 Q288.4575,325.9369 289.8013,325.9369 Q290.4263,325.9369 291.02,325.6713 Q291.6138,325.39 292.2388,324.8119 L292.2388,327.5306 Z " fill="#000000"/><text fill="#000000" font-family="sans-serif" font-size="14" lengthAdjust="spacing" textLength="169.4561" x="303.27" y="326.7367">TaskNotFoundException</text><line style="stroke:#181818;stroke-width:0.5;" x1="275.27" x2="474.7261" y1="337.89" y2="337.89"/><line style="stroke:#181818;stroke-width:0.5;" x1="275.27" x2="474.7261" y1="345.89" y2="345.89"/><ellipse cx="285.27" cy="359.5384" fill="#84BE84" rx="3" ry="3" style="stroke:#038048;stroke-width:1;"/><text fill="#000000" font-family="sans-serif" font-size="14" lengthAdjust="spacing" textLength="141.5039" x="294.27" y="362.8851">String getMessage()</text></g><!--class TimeConflictException--><g class="entity" data-entity="TimeConflictException" data-source-line="32" data-uid="ent0016" id="entity_TimeConflictException"><rect fill="#F1F1F1" height="80.5938" rx="2.5" ry="2.5" style="stroke:#181818;stroke-width:0.5;" width="188.9463" x="1320.53" y="157.15"/><ellipse cx="1335.53" cy="173.15" fill="#ADD1B2" rx="11" ry="11" style="stroke:#181818;stroke-width:1;"/><path d="M1338.4988,178.7906 Q1337.9206,179.0875 1337.28,179.2281 Q1336.6394,179.3844 1335.9363,179.3844 Q1333.4363,179.3844 1332.1081,177.7438 Q1330.7956,176.0875 1330.7956,172.9625 Q1330.7956,169.8375 1332.1081,168.1813 Q1333.4363,166.525 1335.9363,166.525 Q1336.6394,166.525 1337.28,166.6813 Q1337.9363,166.8375 1338.4988,167.1344 L1338.4988,169.8531 Q1337.8738,169.275 1337.28,169.0094 Q1336.6863,168.7281 1336.0613,168.7281 Q1334.7175,168.7281 1334.03,169.8063 Q1333.3425,170.8688 1333.3425,172.9625 Q1333.3425,175.0563 1334.03,176.1344 Q1334.7175,177.1969 1336.0613,177.1969 Q1336.6863,177.1969 1337.28,176.9313 Q1337.8738,176.65 1338.4988,176.0719 L1338.4988,178.7906 Z " fill="#000000"/><text fill="#000000" font-family="sans-serif" font-size="14" lengthAdjust="spacing" textLength="156.9463" x="1349.53" y="177.9967">TimeConflictException</text><line style="stroke:#181818;stroke-width:0.5;" x1="1321.53" x2="1508.4763" y1="189.15" y2="189.15"/><ellipse cx="1331.53" cy="202.7984" fill="none" rx="3" ry="3" style="stroke:#038048;stroke-width:1;"/><text fill="#000000" font-family="sans-serif" font-size="14" lengthAdjust="spacing" textLength="93.9121" x="1340.53" y="206.1451">String reason</text><line style="stroke:#181818;stroke-width:0.5;" x1="1321.53" x2="1508.4763" y1="213.4469" y2="213.4469"/><ellipse cx="1331.53" cy="227.0953" fill="#84BE84" rx="3" ry="3" style="stroke:#038048;stroke-width:1;"/><text fill="#000000" font-family="sans-serif" font-size="14" lengthAdjust="spacing" textLength="141.5039" x="1340.53" y="230.442">String getMessage()</text></g><!--class TodoAppException--><g class="entity" data-entity="TodoAppException" data-source-line="37" data-uid="ent0017" id="entity_TodoAppException"><rect fill="#F1F1F1" height="48" rx="2.5" ry="2.5" style="stroke:#181818;stroke-width:0.5;" width="163.0654" x="936.47" y="41"/><ellipse cx="951.47" cy="57" fill="#A9DCDF" rx="11" ry="11" style="stroke:#181818;stroke-width:1;"/><path d="M951.5794,52.3438 L950.4231,57.4219 L952.7513,57.4219 L951.5794,52.3438 Z M950.095,50.1094 L953.0794,50.1094 L956.4388,62.5 L953.9856,62.5 L953.22,59.4375 L949.9388,59.4375 L949.1888,62.5 L946.7513,62.5 L950.095,50.1094 Z " fill="#000000"/><text fill="#000000" font-family="sans-serif" font-size="14" font-style="italic" lengthAdjust="spacing" textLength="131.0654" x="965.47" y="61.8467">TodoAppException</text><line style="stroke:#181818;stroke-width:0.5;" x1="937.47" x2="1098.5354" y1="73" y2="73"/><line style="stroke:#181818;stroke-width:0.5;" x1="937.47" x2="1098.5354" y1="81" y2="81"/></g><!--reverse link TodoAppException to EntityNotFoundException--><g class="link" data-entity-1="TodoAppException" data-entity-2="EntityNotFoundException" data-source-line="39" data-uid="lnk19" id="link_TodoAppException_EntityNotFoundException"><path codeLine="39" d="M918.5994,86.1692 C802.5794,109.7092 607.77,149.23 480.15,175.12 " fill="none" id="TodoAppException-backto-EntityNotFoundException" style="stroke:#181818;stroke-width:1;"/><polygon fill="none" points="936.24,82.59,917.4064,80.289,919.7925,92.0494,936.24,82.59" style="stroke:#181818;stroke-width:1;"/></g><!--reverse link TodoAppException to IllegalNameException--><g class="link" data-entity-1="TodoAppException" data-entity-2="IllegalNameException" data-source-line="40" data-uid="lnk21" id="link_TodoAppException_IllegalNameException"><path codeLine="40" d="M981.8251,102.0209 C965.2651,118.5109 955.24,128.5 934.9,148.75 " fill="none" id="TodoAppException-backto-IllegalNameException" style="stroke:#181818;stroke-width:1;"/><polygon fill="none" points="994.58,89.32,977.5915,97.7693,986.0588,106.2726,994.58,89.32" style="stroke:#181818;stroke-width:1;"/></g><!--reverse link TodoAppException to IllegalProjectDescriptionException--><g class="link" data-entity-1="TodoAppException" data-entity-2="IllegalProjectDescriptionException" data-source-line="41" data-uid="lnk23" id="link_TodoAppException_IllegalProjectDescriptionException"><path codeLine="41" d="M1054.4006,101.9748 C1071.0806,118.4648 1081.24,128.5 1101.73,148.75 " fill="none" id="TodoAppException-backto-IllegalProjectDescriptionException" style="stroke:#181818;stroke-width:1;"/><polygon fill="none" points="1041.6,89.32,1050.1823,106.2417,1058.6189,97.7079,1041.6,89.32" style="stroke:#181818;stroke-width:1;"/></g><!--reverse link IllegalNameException to IllegalProjectNameException--><g class="link" data-entity-1="IllegalNameException" data-entity-2="IllegalProjectNameException" data-source-line="42" data-uid="lnk25" id="link_IllegalNameException_IllegalProjectNameException"><path codeLine="42" d="M781.2763,254.8081 C738.5663,277.5781 705.32,295.29 670.87,313.66 " fill="none" id="IllegalNameException-backto-IllegalProjectNameException" style="stroke:#181818;stroke-width:1;"/><polygon fill="none" points="797.16,246.34,778.4536,249.5135,784.099,260.1026,797.16,246.34" style="stroke:#181818;stroke-width:1;"/></g><!--reverse link IllegalNameException to IllegalTaskNameException--><g class="link" data-entity-1="IllegalNameException" data-entity-2="IllegalTaskNameException" data-source-line="43" data-uid="lnk27" id="link_IllegalNameException_IllegalTaskNameException"><path codeLine="43" d="M887,264.14 C887,287.01 887,295.36 887,313.78 " fill="none" id="IllegalNameException-backto-IllegalTaskNameException" style="stroke:#181818;stroke-width:1;"/><polygon fill="none" points="887,246.14,881,264.14,893,264.14,887,246.14" style="stroke:#181818;stroke-width:1;"/></g><!--reverse link IllegalNameException to ProjectNameDublicateException--><g class="link" data-entity-1="IllegalNameException" data-entity-2="ProjectNameDublicateException" data-source-line="44" data-uid="lnk29" id="link_IllegalNameException_ProjectNameDublicateException"><path codeLine="44" d="M995.5072,253.7337 C1040.4772,276.6537 1076.51,295.01 1112.95,313.58 " fill="none" id="IllegalNameException-backto-ProjectNameDublicateException" style="stroke:#181818;stroke-width:1;"/><polygon fill="none" points="979.47,245.56,992.7826,259.0794,998.2317,248.388,979.47,245.56" style="stroke:#181818;stroke-width:1;"/></g><!--reverse link EntityNotFoundException to ProjectNotFoundException--><g class="link" data-entity-1="EntityNotFoundException" data-entity-2="ProjectNotFoundException" data-source-line="45" data-uid="lnk31" id="link_EntityNotFoundException_ProjectNotFoundException"><path codeLine="45" d="M303.6782,238.9594 C263.8682,261.5694 226.18,282.98 186.43,305.55 " fill="none" id="EntityNotFoundException-backto-ProjectNotFoundException" style="stroke:#181818;stroke-width:1;"/><polygon fill="none" points="319.33,230.07,300.7151,233.7421,306.6413,244.1767,319.33,230.07" style="stroke:#181818;stroke-width:1;"/></g><!--reverse link IllegalNameException to TaskNameDublicateException--><g class="link" data-entity-1="IllegalNameException" data-entity-2="TaskNameDublicateException" data-source-line="46" data-uid="lnk33" id="link_IllegalNameException_TaskNameDublicateException"><path codeLine="46" d="M996.4138,246.1306 C1002.2938,248.2606 991.24,244.11 997,245.89 C1130.24,287.08 1168.5,277.31 1305,305.89 C1316.62,308.33 1328.77,310.94 1340.84,313.59 " fill="none" id="IllegalNameException-backto-TaskNameDublicateException" style="stroke:#181818;stroke-width:1;"/><polygon fill="none" points="979.49,240,994.3703,251.7718,998.4574,240.4893,979.49,240" style="stroke:#181818;stroke-width:1;"/></g><!--reverse link EntityNotFoundException to TaskNotFoundException--><g class="link" data-entity-1="EntityNotFoundException" data-entity-2="TaskNotFoundException" data-source-line="47" data-uid="lnk35" id="link_EntityNotFoundException_TaskNotFoundException"><path codeLine="47" d="M375,247.9 C375,270.58 375,283.06 375,305.72 " fill="none" id="EntityNotFoundException-backto-TaskNotFoundException" style="stroke:#181818;stroke-width:1;"/><polygon fill="none" points="375,229.9,369,247.9,381,247.9,375,229.9" style="stroke:#181818;stroke-width:1;"/></g><!--reverse link TodoAppException to TimeConflictException--><g class="link" data-entity-1="TodoAppException" data-entity-2="TimeConflictException" data-source-line="48" data-uid="lnk37" id="link_TodoAppException_TimeConflictException"><path codeLine="48" d="M1117.2706,91.7913 C1174.6706,107.2513 1235.52,124.98 1303,149 C1309.76,151.41 1316.71,154.02 1323.66,156.72 " fill="none" id="TodoAppException-backto-TimeConflictException" style="stroke:#181818;stroke-width:1;"/><polygon fill="none" points="1099.89,87.11,1115.7102,97.5848,1118.831,85.9977,1099.89,87.11" style="stroke:#181818;stroke-width:1;"/></g><!--SRC=[lPHDQiCm48NtEeMQLKk9Zr0eJGfPD0IQVPZ84wDQbemqBlszUqLeg9t89fORBothpVTcqBohqa9M0AySBZIXBJ2LGBW2aKE6Zkz0EMGCjeui2E92WNDyCjSawNrfwD5KEfs_2In96ZtXu7YAhybEVYXhH9wGIKsIcWAaJl1mBMcHyq_6-UqpMQapdY4zeNFUnVKD-pvni50ACr1BAB0tFgHjiBN_K_kq2CveVx3Pj1ji-bfPyuA2PkY4bNj0hCkEIWtFwT-5Vx4-PBAX4jxiCMaDBX-2ET7N6JKFisghfF3FkZUeiqY85hiHRVgkbVX57wOGtsLxXNgB-rkn_GN5vpGd2tmmUkTzKNzeIDo0dhKUnz6pzh3xiknlvqYt7-w0j9nMqw-x632BpSWnY5rvDo8_il7GsDYGHBiukJlYHiF7l-wMzM33Wk_YZOSJSPIkWx4OlLi_]--></g></svg>